<svg xmlns="http://www.w3.org/2000/svg" version="1.1" xmlns:xlink="http://www.w3.org/1999/xlink" xmlns:svgjs="http://svgjs.dev/svgjs" width="1000" height="1000" viewBox="0 0 1000 1000"><g transform="matrix(1,0,0,1,-0.14221556886212738,-0.14221556886229791)"><svg viewBox="0 0 334 334" data-background-color="#ffffff" preserveAspectRatio="xMidYMid meet" height="1000" width="1000" xmlns="http://www.w3.org/2000/svg" xmlns:xlink="http://www.w3.org/1999/xlink"><g id="tight-bounds" transform="matrix(1,0,0,1,0.04749999999998522,0.04750000000001364)"><svg viewBox="0 0 333.90454557049503 333.90454557049503" height="333.90454557049503" width="333.90454557049503"><g><svg></svg></g><g><svg viewBox="0 0 333.90454557049503 333.90454557049503" height="333.90454557049503" width="333.90454557049503"><g><path d="M0 166.952c0-92.205 74.747-166.952 166.952-166.952 92.205 0 166.952 74.747 166.953 166.952 0 92.205-74.747 166.952-166.953 166.953-92.205 0-166.952-74.747-166.952-166.953zM166.952 327.306c88.561 0 160.354-71.793 160.354-160.354 0-88.561-71.793-160.354-160.354-160.354-88.561 0-160.354 71.793-160.354 160.354 0 88.561 71.793 160.354 160.354 160.354z" data-fill-palette-color="tertiary" fill="#ff5858" stroke="transparent"></path><ellipse rx="160.27418187383762" ry="160.27418187383762" cx="166.95227278524752" cy="166.95227278524752" fill="#ff5858" stroke="transparent" stroke-width="0" fill-opacity="1" data-fill-palette-color="tertiary"></ellipse></g><g transform="matrix(1,0,0,1,72.55656799932174,71.17305217166896)"><svg viewBox="0 0 188.79140957185155 191.55844122715712" height="191.55844122715712" width="188.79140957185155"><g><svg viewBox="0 0 188.79140957185155 191.55844122715712" height="191.55844122715712" width="188.79140957185155"><g><svg viewBox="0 0 213.1584412271571 216.28260961918696" height="191.55844122715712" width="188.79140957185155"><g transform="matrix(1,0,0,1,0,133.6713295726234)"><svg viewBox="0 0 213.1584412271571 82.61128004656356" height="82.61128004656356" width="213.1584412271571"><g id="textblocktransform"><svg viewBox="0 0 213.1584412271571 82.61128004656356" height="82.61128004656356" width="213.1584412271571" id="textblock"><g><svg viewBox="0 0 213.1584412271571 82.61128004656356" height="82.61128004656356" width="213.1584412271571"><g transform="matrix(1,0,0,1,0,0)"><svg width="213.1584412271571" viewBox="6.320000171661377 -41.849998474121094 136.5699920654297 52.93000030517578" height="82.61128004656356" data-palette-color="#ffffff"><path d="M6.37 0L6.32-41.5 10.35-41.85 10.35 0 6.37 0ZM44.36-19.41L44.36-10.3Q44.36-5.44 44.82-0.2L44.82-0.2 41.21 0.1 40.6-3.3Q37.5-0.81 32.39 0.17L32.39 0.17Q30.73 0.49 29.44 0.49 28.15 0.49 27.16 0.37 26.17 0.24 25.25-0.11 24.34-0.46 23.56-1.1 22.78-1.73 22.19-2.78L22.19-2.78Q20.94-5 20.94-8.12 20.94-11.23 21.4-12.95 21.85-14.67 22.9-15.82L22.9-15.82Q24.97-18.09 29.88-18.09 34.79-18.09 40.35-16.24L40.35-16.24 40.35-19.41Q40.35-24.71 35.98-25.68L35.98-25.68Q34.57-26 32.74-26L32.74-26Q28.56-26 24.07-24.34L24.07-24.34 23.17-27.86Q24.41-28.69 29.51-29.35L29.51-29.35Q31.13-29.54 33.38-29.54 35.64-29.54 37.81-29 39.99-28.47 41.43-27.25L41.43-27.25Q44.36-24.83 44.36-19.41L44.36-19.41ZM40.26-13.18L40.26-13.18Q34.54-14.62 29.71-14.62L29.71-14.62Q26.73-14.62 25.75-12.92L25.75-12.92Q25.1-11.72 25.1-9.38 25.1-7.03 25.35-5.98 25.61-4.93 26.19-4.25L26.19-4.25Q27.34-2.95 29.98-2.95L29.98-2.95Q34.1-2.95 38.16-5.08L38.16-5.08Q39.4-5.71 40.4-6.49L40.4-6.49Q40.26-9.13 40.26-13.18ZM53.68 10.21L54.78 7.03Q56.56 7.67 57.7 7.67 58.83 7.67 59.19 7.6 59.54 7.54 59.91 7.35L59.91 7.35Q60.76 6.88 61.18 5.83L61.18 5.83Q62.2 3.34 62.96 0.37L62.96 0.37 51.75-29.05 56.27-29.05 63.84-7.64 64.99-3.88 66.04-7.67 72.72-29.05 76.97-29.05 64.72 6.88Q63.37 11.08 58.52 11.08L58.52 11.08Q55.44 11.08 53.68 10.21L53.68 10.21ZM98.63 0.49L97.11 0.49Q88.42 0.49 85.64-4.98L85.64-4.98Q84-8.15 83.71-13.45L83.71-13.45Q83.59-15.94 83.59-18.87 83.59-21.8 83.76-24.43 83.93-27.05 84.43-29.17 84.93-31.3 85.84-32.92 86.76-34.55 88.25-35.64L88.25-35.64Q91.33-37.84 97.11-37.84L97.11-37.84 98.63-37.84Q107.68-37.84 110.22-32.96L110.22-32.96Q111.81-29.91 112-24.46L112-24.46Q112.1-21.8 112.1-18.84 112.1-15.87 111.96-13.37 111.81-10.86 111.35-8.74 110.88-6.62 109.99-4.91 109.1-3.2 107.59-2L107.59-2Q104.46 0.49 98.63 0.49L98.63 0.49ZM97.11-3.03L98.58-3.03Q101.26-3.03 103.03-3.61 104.8-4.2 105.83-5.66L105.83-5.66Q107.73-8.37 107.73-16.06L107.73-16.06 107.73-18.7Q107.73-22.39 107.54-25.27 107.34-28.15 106.49-30.13L106.49-30.13Q104.73-34.23 98.87-34.23L98.87-34.23 96.82-34.23Q90.86-34.23 89.2-30.4L89.2-30.4Q88.15-27.95 88.05-24.63 87.96-21.31 87.96-18.7L87.96-18.7 87.96-16.06Q87.96-8.86 90.1-5.91L90.1-5.91Q92.18-3.03 97.11-3.03L97.11-3.03ZM118.59-2.47L120.2-5.88Q125.75-2.95 131.04-2.95L131.04-2.95Q137.2-2.95 138.25-6.88L138.25-6.88Q138.59-8.18 138.59-9.86L138.59-9.86 138.59-10.82Q138.59-12.52 138.34-13.57 138.1-14.62 137.32-15.28L137.32-15.28Q136.05-16.38 131.31-17.11L131.31-17.11Q127.09-17.77 125.48-18.36 123.87-18.95 122.83-19.64 121.79-20.34 121.06-21.39L121.06-21.39Q119.55-23.58 119.55-27.47L119.55-27.47 119.55-27.71Q119.55-35.77 126.24-37.35L126.24-37.35Q128.36-37.84 131.04-37.84L131.04-37.84 131.36-37.84Q137.64-37.84 141.62-36.04L141.62-36.04 140.35-32.3Q135.54-34.38 131.48-34.38L131.48-34.38 131.26-34.38Q126.8-34.38 125.11-32.69L125.11-32.69Q123.7-31.27 123.7-27.78L123.7-27.78 123.7-27.69Q123.7-23.71 125.89-22.46L125.89-22.46Q127.38-21.66 131.23-21.04 135.07-20.43 136.95-20.01 138.83-19.58 140.15-18.6L140.15-18.6Q142.89-16.55 142.89-10.82L142.89-10.82 142.89-10.5Q142.89-1.73 135.83-0.05L135.83-0.05Q133.66 0.49 131.73 0.49 129.8 0.49 128.22 0.35 126.65 0.22 125.01-0.12L125.01-0.12Q121.18-0.9 118.59-2.47L118.59-2.47Z" opacity="1" transform="matrix(1,0,0,1,0,0)" fill="#ffffff" class="undefined-text-0" data-fill-palette-color="quaternary" id="text-0"></path></svg></g></svg></g></svg></g></svg></g><g transform="matrix(1,0,0,1,64.60086118187021,0)"><svg viewBox="0 0 83.95671886341667 114.16878902435086" height="114.16878902435086" width="83.95671886341667"><g><svg xmlns="http://www.w3.org/2000/svg" xmlns:xlink="http://www.w3.org/1999/xlink" version="1.1" x="0" y="0" viewBox="15.934674263000488 6.399998664855957 64.12532043457031 87.20100402832031" enable-background="new 0 0 100 100" xml:space="preserve" height="114.16878902435086" width="83.95671886341667" class="icon-icon-0" data-fill-palette-color="quaternary" id="icon-0"><path d="M26.79 33.79v15.72c0 1.15-0.93 2.09-2.08 2.09h-0.3c-1.15 0-2.09-0.939-2.09-2.09V33.79c0-1.17 0.92-2.09 2.09-2.09h0.3C25.88 31.7 26.79 32.62 26.79 33.79z" fill="#ffffff" data-fill-palette-color="quaternary"></path><path d="M35.3 33.01v24.44c0 1.13-0.96 2.08-2.09 2.08h-0.33c-1.15 0-2.08-0.931-2.08-2.08V33.01c0-1.17 0.91-2.09 2.08-2.09h0.33C34.36 30.92 35.3 31.86 35.3 33.01z" fill="#ffffff" data-fill-palette-color="quaternary"></path><path d="M43.77 32.23v31.15c0 1.15-0.94 2.08-2.08 2.08h-0.33c-1.15 0-2.09-0.93-2.09-2.08V32.23c0-1.15 0.94-2.09 2.09-2.09h0.33C42.83 30.14 43.77 31.08 43.77 32.23z" fill="#ffffff" data-fill-palette-color="quaternary"></path><path d="M80.06 69.39v0.931c0 2.85-2.319 5.16-5.17 5.16-12.81 0-15.75 0-16.58 0.109v-0.03c-7.3 1.28-12.77 7.521-13.359 15.21-0.13 0.261-0.14 0.57-0.02 0.841 0 0.01 0 0.01 0 0.02v0.3c-0.71 0.601-4.95 1.67-12.32 1.67-7.3 0-11.53-1.05-12.29-1.649-0.02-1.24-0.19-3.8-0.57-4.99-0.13-0.37-0.27-0.69-0.41-1.01-0.39-0.931-0.93-1.851-1.58-2.66-0.04-0.05-0.08-0.09-0.12-0.13s-0.07-0.08-0.1-0.11c-0.43-0.49-0.82-0.89-1.17-1.21-0.49-0.97-0.46-1.72-0.41-3.439 0.02-0.62 0.04-1.33 0.04-2.19V48.42c0-3.54 1.27-6.39 3.54-8.05v9.1c0 2.69 2.18 4.87 4.86 4.87h0.33c1.27 0 2.42-0.49 3.29-1.28v4.351c0 2.68 2.18 4.859 4.86 4.859h0.33c1.27 0 2.44-0.489 3.31-1.31v2.38c0 2.68 2.18 4.86 4.86 4.86h0.33c2.68 0 4.86-2.181 4.86-4.86V37.92h-0.04c0.12-1.12 0.11-4.29 0.09-14.39-0.02-7.16-0.05-14.3-0.05-14.3 0-1.56 1.27-2.83 2.84-2.83h0.75c1.6 0 2.859 1.25 2.859 2.83-0.09 48.31-0.01 48.73 0.021 48.87 0.54 2.53 2.31 4.641 4.75 5.67 0.42 0.15 0.88 0.33 1.38 0.41 0.05 0.011 0.1 0.011 0.15 0.011L74.89 64.22C77.74 64.22 80.06 66.54 80.06 69.39z" fill="#ffffff" data-fill-palette-color="quaternary"></path></svg></g></svg></g><g></g></svg></g></svg></g></svg></g></svg></g><defs></defs></svg><rect width="333.90454557049503" height="333.90454557049503" fill="none" stroke="none" visibility="hidden"></rect></g></svg></g></svg>