<svg xmlns="http://www.w3.org/2000/svg" version="1.1" xmlns:xlink="http://www.w3.org/1999/xlink" xmlns:svgjs="http://svgjs.dev/svgjs" width="128" height="128" viewBox="0 0 128 128"><g transform="matrix(0.5255102040816326,0,0,0.5255102040816326,30.209389022264453,12.760752631578946)"><svg viewBox="0 0 62 95" data-background-color="#ffffff" preserveAspectRatio="xMidYMid meet" height="196" width="128" xmlns="http://www.w3.org/2000/svg" xmlns:xlink="http://www.w3.org/1999/xlink"><g id="tight-bounds" transform="matrix(1,0,0,1,0.1455934922210531,-0.24049999999999727)"><svg viewBox="0 0 61.70881301555788 95.481" height="95.481" width="61.70881301555788"><g><svg viewBox="0 0 61.70881301555788 95.481" height="95.481" width="61.70881301555788"><g><svg viewBox="0 0 61.70881301555788 95.481" height="95.481" width="61.70881301555788"><g id="textblocktransform"><svg viewBox="0 0 61.70881301555788 95.481" height="95.481" width="61.70881301555788" id="textblock"><g><svg viewBox="0 0 61.70881301555788 95.481" height="95.481" width="61.70881301555788"><g><svg viewBox="0 0 61.70881301555788 95.481" height="95.481" width="61.70881301555788"><g><svg xmlns="http://www.w3.org/2000/svg" xmlns:xlink="http://www.w3.org/1999/xlink" version="1.1" x="0" y="0" viewBox="19.029283529489586 1.1929392950552384 63.09277122909367 97.62237507641404" style="enable-background:new 0 0 100 100;" xml:space="preserve" height="95.481" width="61.70881301555788" class="icon-icon-0" data-fill-palette-color="accent" id="icon-0"><g fill="#3d62fe" data-fill-palette-color="accent"><path d="M21.9 91c0-0.1 0-0.1 0-0.2 0 0 0 0 0 0-0.1 0-0.1 0-0.2 0-0.4-0.2-1 0-1.5 0.2-1 0.4-1.6 1.6-0.8 2.5 0.5 0.5 1.2 0.9 1.8 1.2 0.2 0.3 0.6 0.3 0.8 0l0 0c0.8-0.4 0.5-2.8 0.1-3.6C22 91.2 21.9 91.1 21.9 91z" fill="#3d62fe" data-fill-palette-color="accent"></path><path d="M82 35.6c-0.8-2.5-3.5-3.6-5.9-4.7-2.1-1-4.2-2-5.9-3.5 0.3 0.9 0.5 1.9 0.7 2.8 0.1 0.3-0.1 0.6-0.5 0.7 0 0-0.1 0-0.1 0-0.3 0-0.5-0.2-0.6-0.5-0.3-1.5-0.8-3.1-1.4-4.6-1.3-3.3-5.2-10.9-12.6-9.3-0.3 0.1-0.6-0.1-0.7-0.4 0-0.1 0-0.2 0-0.3 0-0.1-0.1-0.1-0.1-0.2-0.5-3.8-1.9-8.9-5.9-12-3.2-2.5-8.4-3.5-11.6-0.8C37 3.3 36.5 4 36.7 4.4c0.1 0.2 0.8 0.2 1.2 0.2 0.2 0 0.4 0 0.5 0 2.6 0.2 5.2 1 7.4 2.3 3.7 2.2 7.5 6.3 6.4 10.8 0.1 0.2 0.1 0.4-0.1 0.5-1.9 2.6-1.5 6-0.9 8.7 0.2 1 0.5 2.1 0.8 3.1l0.2 0.9c0 0 0 0 0 0 0 0 0 0 0 0l0 0c0 0 0 0 0 0l0 0c0 0 0 0 0 0.1 0 0 0 0 0 0l0.1 0.4c0.4 1.6 0.8 3.4 1.1 5.3 0 0.3-0.2 0.6-0.5 0.6 0 0-0.1 0-0.1 0-0.3 0-0.5-0.2-0.6-0.5-0.1-0.7-0.2-1.5-0.4-2.2-0.7 1.4-1.9 2.5-3.1 3.7-1.3 1.3-2.6 2.4-3.1 3.8-0.3 0.8 0.3 3 1 3.5 0.1 0.1 0.3 0.2 0.7-0.3 0.2-0.3 0.3-0.7 0.3-1.1 0.1-0.7 0.2-1.6 1.1-2.1 0.8-0.4 1.9-0.4 2.9-0.3 0.4 0 0.7 0 1 0 0-0.5-0.1-1-0.1-1.5 0-0.3 0.2-0.6 0.5-0.6 0.3 0 0.6 0.2 0.6 0.5 0.1 0.7 0.1 1.4 0.1 2.1 0.4 7.4-0.4 14.7-2.5 21.9l-0.3 1c-1.4 5.1-3.4 12-8.7 13.9-1.8 1-3.6 2.2-4.4 4-0.2 0.4-0.3 0.8-0.4 1.2-0.1 0.6-0.3 1.2-0.7 1.8-0.6 0.9-1.5 1.4-2.5 1.9-0.3 0.1-0.6 0.3-0.9 0.4-1.7 0.7-3.7 1.1-5.4 1.5-0.9 0.2-1.9 0.3-3 0.4-0.8 0.1-1.5 0.1-2.3 0.3 0.7 2.6 0.7 4.3 0 5.2 2.2 0.7 4.5 1.2 7 1.4 4.8 0.4 9.6-0.3 14.2-2.1 0-0.1 0-0.2 0-0.3 0.1-0.2 0.2-0.5 0.3-0.7 0.4-1.2 1.1-3.2 2.8-2.8 0.3 0.1 0.5 0.4 0.4 0.7-0.1 0.3-0.4 0.5-0.7 0.4-0.6-0.2-1 0.8-1.4 2 0 0 0 0.1 0 0.1 0.7-0.3 1.4-0.6 2-0.9 0.1-0.1 0.2-0.2 0.3-0.2 0.9-0.3 1.9-0.6 2.8-0.8l0-0.1c-1-3.5-2.2-7.9-5.6-9.6-0.3-0.1-0.4-0.5-0.3-0.8 0.1-0.3 0.5-0.4 0.8-0.3 3.9 1.9 5.2 6.6 6.2 10.4l0 0.1c0.1 0.2 0.1 0.4 0.1 0.6l0.1 0.6c0.4 1.6 0.8 3.3 1.9 4.4 0.6 0.6 1.4 1 2.3 0.9 1 0 2-0.5 2.7-1.3 1.2-1.3 1.6-3 1.1-5.2-0.4-2.1-1.6-4.2-2.5-5.6-1.5-2.3-5.3-7.6-9.9-7.6 0 0-0.1 0-0.1 0-0.3 0-0.6-0.3-0.6-0.6 0-0.3 0.2-0.6 0.6-0.6 0 0 0.1 0 0.1 0 4.9 0 8.9 5.1 10.8 8.1 0.8 1.3 1.9 3.3 2.5 5.3 1-0.8 1.9-1.6 2.7-2.6 0.1-0.1 0.3-0.2 0.4-0.2 0.2-0.1 0.5-0.1 0.6 0.1 2 1.9 4.8 2.9 7.9 3 1.3 0 4.5-0.1 5.3-2.2 0.4-1 0.1-2.2-0.9-2.7-0.9-0.4-1.6 0.2-2.6 1.1-0.1 0.1-0.1 0.1-0.2 0.2-0.4 0.4-0.8 0.8-1.5 0.7-0.6-0.1-1.2-0.7-1.9-1.4l-0.2-0.2c-1.3-1.3-2.2-3-2.5-4.8 0 0 0-0.1 0-0.1-0.1-0.1-0.1-0.3 0-0.5 2.6-6.3 2.9-13.4 3.1-20.3l0-1.5c0.3-9 0.1-16.4-0.5-23.4 0-0.2 0.1-0.3 0.2-0.4 0 0 0 0 0-0.1 0.2-0.2 0.6-0.3 0.8-0.1 1 0.9 2.4 1.3 4.1 1.2 1.7-0.1 2.1 0.1 3.5 1.1 0.5 0.4 1.3 0.7 2 0.2C82.1 38 82.3 36.7 82 35.6zM45 85.9c0.3 0 0.6 0.2 0.6 0.6 0 0.9-0.4 1.7-1.2 2-0.3 0.1-0.6 0.2-0.9 0.2-0.8 0-1.5-0.3-2.1-0.9-0.2-0.2-0.2-0.6 0-0.8 0.2-0.2 0.6-0.2 0.8 0 0.5 0.5 1.2 0.6 1.6 0.5 0.3-0.1 0.5-0.4 0.5-0.9C44.4 86.1 44.7 85.9 45 85.9z" fill="#3d62fe" data-fill-palette-color="accent"></path><path d="M36 85.6c0.3-0.4 0.4-0.9 0.5-1.5 0.1-0.5 0.2-0.9 0.4-1.4 0.6-1.3 1.6-2.3 2.7-3.2-1.6 0.5-3 1.4-4 2.7-0.9 1-1.8 2.7-1.8 4.9 0 0 0.1 0 0.1 0C34.8 86.6 35.6 86.2 36 85.6z" fill="#3d62fe" data-fill-palette-color="accent"></path></g></svg></g></svg></g></svg></g></svg></g></svg></g><g></g></svg></g><defs></defs></svg><rect width="61.70881301555788" height="95.481" fill="none" stroke="none" visibility="hidden"></rect></g></svg></g></svg>